<?xml version="1.0" standalone="no"?>
<!DOCTYPE svg PUBLIC "-//W3C//DTD SVG 20010904//EN"
 "http://www.w3.org/TR/2001/REC-SVG-20010904/DTD/svg10.dtd">
<svg version="1.0" xmlns="http://www.w3.org/2000/svg"
 width="700.000000pt" height="700.000000pt" viewBox="0 0 700.000000 700.000000"
 preserveAspectRatio="xMidYMid meet">
<metadata>
Created by potrace 1.11, written by Peter Selinger 2001-2013
</metadata>
<g transform="translate(0.000000,700.000000) scale(0.100000,-0.100000)"
fill="#000000" stroke="none">
<path d="M1374 6985 c-137 -37 -245 -147 -290 -294 -20 -67 -21 -6300 0 -6376
39 -147 144 -256 288 -299 47 -14 279 -16 2129 -16 1812 0 2082 2 2126 15 142
42 246 145 287 284 14 49 16 339 16 3185 -1 1952 -4 3149 -10 3180 -22 113
-103 228 -196 280 -106 59 41 56 -2224 55 -1726 0 -2084 -3 -2126 -14z m3911
-1360 l0 -720 -1767 -3 -1768 -2 -1 27 c0 33 0 1209 1 1334 l0 87 1768 -2
1767 -1 0 -720z m-2650 -1942 l0 -443 -442 0 c-348 0 -443 3 -444 13 0 16 0
872 0 873 1 1 200 1 443 0 l443 -1 0 -442z m1335 2 l0 -445 -444 0 -443 0 -1
428 c0 235 2 434 4 443 4 15 47 17 444 17 l440 1 0 -444z m1315 0 l0 -440
-442 -3 c-417 -2 -443 -1 -444 15 0 24 0 799 0 840 l1 33 443 -3 442 -2 0
-440z m-2650 -1333 c0 -387 -2 -442 -15 -443 -8 0 -206 -2 -439 -2 -299 -2
-425 1 -428 9 -7 20 -8 874 -1 877 5 1 205 2 445 2 l438 -1 0 -442z m1335 2
l0 -442 -22 -3 c-13 -2 -212 -4 -443 -3 l-420 1 -1 439 c-1 241 2 441 6 444 5
3 204 5 444 5 l436 0 0 -441z m1316 -2 c0 -440 0 -442 -20 -443 -141 -7 -866
-2 -867 6 -5 96 -2 876 4 878 4 1 204 2 445 2 l437 -1 1 -442z m-2651 -1307
l0 -440 -443 -1 -442 -2 0 72 c-1 96 -1 676 0 754 l0 62 443 -2 442 -3 0 -440z
m1335 1 l0 -444 -442 1 -443 2 -1 443 -1 442 443 0 444 0 0 -444z m1316 0 l0
-444 -443 0 c-326 0 -443 3 -444 12 0 15 0 824 0 854 l1 22 443 0 443 0 0
-444z"/>
</g>
</svg>
